<svg xmlns="http://www.w3.org/2000/svg" viewBox="0 0 463.75 354.34"><defs><style>.cls-1{fill:#fb9c51;}.cls-2{fill:#ff6464;}.cls-3{fill:#f7d33d;}</style></defs><g id="Calque_2" data-name="Calque 2"><g id="Calque_1-2" data-name="Calque 1"><path class="cls-1" d="M199.78,12.59l21.94,37.72S325,20.08,392.82,93.43c11.66,12.6,20.42,27.42,23,47.09h45.85S452.66,33,333.59,6.8C310.42,1.69,287.84-.91,264.14.29,225.88,2.22,199.78,12.59,199.78,12.59Z"/><path class="cls-2" d="M204.58,309c-34.31.19-68.62-.36-102.92-.7-3.59,0-8.25-.1-13-.32L156.6,136.35h0c36.78,66,80.22,146.88,116.92,212.91.87,1.55,2.76,5.08,2.76,5.08h50q-29.26-58-58.54-116L147.17,24.1h0L3.7,346.63c-1,1.9-2.45,5.75-3.7,7.5l.84.12q115.14.17,230.28.09Z"/><path class="cls-3" d="M344.11,247.84c22.86-.51,47.49-.22,71.21-.22-.81,3.65-1.17,6.11-1.89,8.44-6.53,21-24.11,37.86-38.8,52.29h0c5.2,10.6,18.18,36.06,18.18,36.06,19.72-10.87,30.63-20.55,43.26-38.68,10.49-15.05,17.26-31.74,22.17-49.27a153.23,153.23,0,0,0,5.51-41.32v-8.55H321.86Z"/></g></g></svg>