<svg id="Capa_1" enable-background="new 0 0 512 512" height="512" viewBox="0 0 512 512" width="512" xmlns="http://www.w3.org/2000/svg"><g>
<path d="m482 347.266v-194.247l23.093-7.51c4.119-1.339 6.907-5.179 6.907-9.51s-2.788-8.17-6.907-9.51l-246-80c-2.011-.653-4.175-.653-6.186 0l-246 80c-4.118 1.34-6.907 5.18-6.907 9.511s2.789 8.17 6.907 9.51l99.093 32.225v78.265c0 20.279 16.715 38.61 47.066 51.618 27.659 11.854 64.215 18.382 102.934 18.382s75.275-6.528 102.935-18.382c30.35-13.008 47.065-31.339 47.065-51.618v-78.265l56-18.211v187.742c-17.233 4.452-30 20.13-30 38.734v21.799c0 15.29-6.222 30.281-17.071 41.129-2.859 2.86-3.715 7.161-2.168 10.898 1.548 3.737 5.194 6.173 9.239 6.173h20c38.598 0 70-31.402 70-70v-10c0-18.604-12.767-34.281-30-38.733zm-226-280.75 213.665 69.484-213.665 69.484-213.665-69.484zm130 189.484c0 23.649-53.389 50-130 50s-130-26.351-130-50v-71.761l126.907 41.271c1.005.327 2.049.49 3.093.49s2.087-.164 3.093-.49l126.907-41.271z"/></g></svg>